solid OpenSCAD_Model
  facet normal 1 0 0
    outer loop
      vertex 14 15.4 13
      vertex 14 5.8 7.47685
      vertex 14 15.4 0
    endloop
  endfacet
  facet normal 1 0 0
    outer loop
      vertex 14 15.4 13
      vertex 14 2.9 12.9
      vertex 14 5.8 7.47685
    endloop
  endfacet
  facet normal 1 -0 0
    outer loop
      vertex 14 0 13
      vertex 14 2.9 12.9
      vertex 14 15.4 13
    endloop
  endfacet
  facet normal 1 0 0
    outer loop
      vertex 14 2.9 12.9
      vertex 14 0 13
      vertex 14 0 12.9
    endloop
  endfacet
  facet normal 1 -0 0
    outer loop
      vertex 14 5.8 5.52315
      vertex 14 15.4 0
      vertex 14 5.8 7.47685
    endloop
  endfacet
  facet normal 1 0 0
    outer loop
      vertex 14 2.9 0
      vertex 14 5.8 5.52315
      vertex 14 2.9 5.52315
    endloop
  endfacet
  facet normal 1 0 0
    outer loop
      vertex 14 5.8 5.52315
      vertex 14 2.9 0
      vertex 14 15.4 0
    endloop
  endfacet
  facet normal 1 0 0
    outer loop
      vertex 14 5.8 7.47685
      vertex 14 2.9 12.9
      vertex 14 2.9 7.47685
    endloop
  endfacet
  facet normal -1 0 0
    outer loop
      vertex 14 -0.0999994 7.47685
      vertex 14 0 12.9
      vertex 14 0 7.47685
    endloop
  endfacet
  facet normal -1 -0 0
    outer loop
      vertex 14 0 12.9
      vertex 14 -0.0999994 7.47685
      vertex 14 -0.0999994 12.9
    endloop
  endfacet
  facet normal -1 0 0
    outer loop
      vertex 14 2.9 -0.0999994
      vertex 14 0 0
      vertex 14 2.9 0
    endloop
  endfacet
  facet normal -1 0 0
    outer loop
      vertex 14 -0.0999994 -0.0999994
      vertex 14 0 0
      vertex 14 2.9 -0.0999994
    endloop
  endfacet
  facet normal -1 0 0
    outer loop
      vertex 14 -0.0999994 5.52315
      vertex 14 0 0
      vertex 14 -0.0999994 -0.0999994
    endloop
  endfacet
  facet normal -1 0 0
    outer loop
      vertex 14 0 0
      vertex 14 -0.0999994 5.52315
      vertex 14 0 5.52315
    endloop
  endfacet
  facet normal 0 0 1
    outer loop
      vertex 14 15.4 13
      vertex 12.4 13.9 13
      vertex 14 0 13
    endloop
  endfacet
  facet normal 0 0 1
    outer loop
      vertex 14 15.4 13
      vertex -12.4 13.9 13
      vertex 12.4 13.9 13
    endloop
  endfacet
  facet normal -0 0 1
    outer loop
      vertex -14 15.4 13
      vertex -12.4 13.9 13
      vertex 14 15.4 13
    endloop
  endfacet
  facet normal 0 0 1
    outer loop
      vertex -14 0 13
      vertex -12.4 13.9 13
      vertex -14 15.4 13
    endloop
  endfacet
  facet normal 0 0 1
    outer loop
      vertex -12.4 13.9 13
      vertex -14 0 13
      vertex -12.4 0 13
    endloop
  endfacet
  facet normal 0 0 1
    outer loop
      vertex 14 0 13
      vertex 12.4 13.9 13
      vertex 12.4 0 13
    endloop
  endfacet
  facet normal 0 0 -1
    outer loop
      vertex -14 2.9 0
      vertex -12.4 0 0
      vertex -14 0 0
    endloop
  endfacet
  facet normal 0 0 -1
    outer loop
      vertex 12.4 0 0
      vertex 14 2.9 0
      vertex 14 0 0
    endloop
  endfacet
  facet normal -0 0 -1
    outer loop
      vertex 14 2.9 0
      vertex 12.4 0 0
      vertex 12.4 13.9 0
    endloop
  endfacet
  facet normal 0 0 -1
    outer loop
      vertex 14 2.9 0
      vertex 12.4 13.9 0
      vertex 14 15.4 0
    endloop
  endfacet
  facet normal 0 0 -1
    outer loop
      vertex -12.4 13.9 0
      vertex 14 15.4 0
      vertex 12.4 13.9 0
    endloop
  endfacet
  facet normal 0 0 -1
    outer loop
      vertex -12.4 0 0
      vertex -14 2.9 0
      vertex -12.4 13.9 0
    endloop
  endfacet
  facet normal 0 0 -1
    outer loop
      vertex -12.4 13.9 0
      vertex -14 15.4 0
      vertex 14 15.4 0
    endloop
  endfacet
  facet normal 0 0 -1
    outer loop
      vertex -14 15.4 0
      vertex -12.4 13.9 0
      vertex -14 2.9 0
    endloop
  endfacet
  facet normal -1 0 0
    outer loop
      vertex -14 15.4 0
      vertex -14 5.8 5.52315
      vertex -14 15.4 13
    endloop
  endfacet
  facet normal -1 0 0
    outer loop
      vertex -14 2.9 0
      vertex -14 5.8 5.52315
      vertex -14 15.4 0
    endloop
  endfacet
  facet normal -1 -0 0
    outer loop
      vertex -14 5.8 5.52315
      vertex -14 2.9 0
      vertex -14 2.9 5.52315
    endloop
  endfacet
  facet normal -1 0 0
    outer loop
      vertex -14 5.8 7.47685
      vertex -14 15.4 13
      vertex -14 5.8 5.52315
    endloop
  endfacet
  facet normal -1 0 0
    outer loop
      vertex -14 2.9 12.9
      vertex -14 5.8 7.47685
      vertex -14 2.9 7.47685
    endloop
  endfacet
  facet normal -1 0 0
    outer loop
      vertex -14 5.8 7.47685
      vertex -14 2.9 12.9
      vertex -14 15.4 13
    endloop
  endfacet
  facet normal -1 0 0
    outer loop
      vertex -14 0 13
      vertex -14 2.9 12.9
      vertex -14 0 12.9
    endloop
  endfacet
  facet normal -1 0 0
    outer loop
      vertex -14 2.9 12.9
      vertex -14 0 13
      vertex -14 15.4 13
    endloop
  endfacet
  facet normal 1 0 0
    outer loop
      vertex -14 0 5.52315
      vertex -14 -0.0999994 5.52315
      vertex -14 0 0
    endloop
  endfacet
  facet normal 1 -0 0
    outer loop
      vertex -14 0 0
      vertex -14 2.9 -0.0999994
      vertex -14 2.9 0
    endloop
  endfacet
  facet normal 1 0 0
    outer loop
      vertex -14 0 0
      vertex -14 -0.0999994 -0.0999994
      vertex -14 2.9 -0.0999994
    endloop
  endfacet
  facet normal 1 0 0
    outer loop
      vertex -14 -0.0999994 -0.0999994
      vertex -14 0 0
      vertex -14 -0.0999994 5.52315
    endloop
  endfacet
  facet normal 1 -0 0
    outer loop
      vertex -14 -0.0999994 12.9
      vertex -14 0 7.47685
      vertex -14 0 12.9
    endloop
  endfacet
  facet normal 1 0 0
    outer loop
      vertex -14 0 7.47685
      vertex -14 -0.0999994 12.9
      vertex -14 -0.0999994 7.47685
    endloop
  endfacet
  facet normal 0 1 -0
    outer loop
      vertex 14 15.4 0
      vertex -14 15.4 13
      vertex 14 15.4 13
    endloop
  endfacet
  facet normal 0 1 0
    outer loop
      vertex -14 15.4 13
      vertex 14 15.4 0
      vertex -14 15.4 0
    endloop
  endfacet
  facet normal 0 -1 0
    outer loop
      vertex -14 0 12.9
      vertex -12.4 0 13
      vertex -14 0 13
    endloop
  endfacet
  facet normal 0 -1 0
    outer loop
      vertex -14 0 7.47685
      vertex -12.4 0 13
      vertex -14 0 12.9
    endloop
  endfacet
  facet normal 0 -1 0
    outer loop
      vertex -13.7876 0 7.2
      vertex -12.4 0 13
      vertex -14 0 7.47685
    endloop
  endfacet
  facet normal 0 -1 0
    outer loop
      vertex -13.6477 0 6.86235
      vertex -12.4 0 13
      vertex -13.7876 0 7.2
    endloop
  endfacet
  facet normal 0 -1 0
    outer loop
      vertex -13.6 0 6.5
      vertex -12.4 0 13
      vertex -13.6477 0 6.86235
    endloop
  endfacet
  facet normal 0 -1 0
    outer loop
      vertex -12.4 0 0
      vertex -13.6 0 6.5
      vertex -13.6477 0 6.13765
    endloop
  endfacet
  facet normal 0 -1 0
    outer loop
      vertex -12.4 0 0
      vertex -14 0 5.52315
      vertex -14 0 0
    endloop
  endfacet
  facet normal 0 -1 0
    outer loop
      vertex -14 0 5.52315
      vertex -12.4 0 0
      vertex -13.7876 0 5.8
    endloop
  endfacet
  facet normal 0 -1 0
    outer loop
      vertex -13.7876 0 5.8
      vertex -12.4 0 0
      vertex -13.6477 0 6.13765
    endloop
  endfacet
  facet normal 0 -1 0
    outer loop
      vertex -13.6 0 6.5
      vertex -12.4 0 0
      vertex -12.4 0 13
    endloop
  endfacet
  facet normal 0 -1 0
    outer loop
      vertex 12.4 0 13
      vertex 14 0 12.9
      vertex 14 0 13
    endloop
  endfacet
  facet normal 0 -1 0
    outer loop
      vertex 12.4 0 13
      vertex 14 0 7.47685
      vertex 14 0 12.9
    endloop
  endfacet
  facet normal 0 -1 0
    outer loop
      vertex 12.4 0 13
      vertex 13.7876 0 7.2
      vertex 14 0 7.47685
    endloop
  endfacet
  facet normal 0 -1 0
    outer loop
      vertex 12.4 0 13
      vertex 13.6477 0 6.86235
      vertex 13.7876 0 7.2
    endloop
  endfacet
  facet normal 0 -1 0
    outer loop
      vertex 12.4 0 13
      vertex 13.6 0 6.5
      vertex 13.6477 0 6.86235
    endloop
  endfacet
  facet normal 0 -1 0
    outer loop
      vertex 12.4 0 0
      vertex 13.6 0 6.5
      vertex 12.4 0 13
    endloop
  endfacet
  facet normal 0 -1 -0
    outer loop
      vertex 13.6 0 6.5
      vertex 12.4 0 0
      vertex 13.6477 0 6.13765
    endloop
  endfacet
  facet normal 0 -1 0
    outer loop
      vertex 12.4 0 0
      vertex 13.7876 0 5.8
      vertex 13.6477 0 6.13765
    endloop
  endfacet
  facet normal 0 -1 0
    outer loop
      vertex 12.4 0 0
      vertex 14 0 5.52315
      vertex 13.7876 0 5.8
    endloop
  endfacet
  facet normal 0 -1 -0
    outer loop
      vertex 14 0 5.52315
      vertex 12.4 0 0
      vertex 14 0 0
    endloop
  endfacet
  facet normal -1 0 0
    outer loop
      vertex 12.4 0 0
      vertex 12.4 13.9 13
      vertex 12.4 13.9 0
    endloop
  endfacet
  facet normal -1 -0 0
    outer loop
      vertex 12.4 13.9 13
      vertex 12.4 0 0
      vertex 12.4 0 13
    endloop
  endfacet
  facet normal 1 -0 0
    outer loop
      vertex -12.4 0 13
      vertex -12.4 13.9 0
      vertex -12.4 13.9 13
    endloop
  endfacet
  facet normal 1 0 0
    outer loop
      vertex -12.4 13.9 0
      vertex -12.4 0 13
      vertex -12.4 0 0
    endloop
  endfacet
  facet normal 0 -1 0
    outer loop
      vertex -12.4 13.9 0
      vertex 12.4 13.9 13
      vertex -12.4 13.9 13
    endloop
  endfacet
  facet normal 0 -1 -0
    outer loop
      vertex 12.4 13.9 13
      vertex -12.4 13.9 0
      vertex 12.4 13.9 0
    endloop
  endfacet
  facet normal -0.92384 0 0.382779
    outer loop
      vertex -13.7876 0 5.8
      vertex -13.6477 5.8 6.13765
      vertex -13.7876 5.8 5.8
    endloop
  endfacet
  facet normal -0.92384 0 0.382779
    outer loop
      vertex -13.6477 5.8 6.13765
      vertex -13.7876 0 5.8
      vertex -13.6477 0 6.13765
    endloop
  endfacet
  facet normal 0.608816 0 -0.793311
    outer loop
      vertex -15.9899 -0.0999994 7.48995
      vertex -15.7 2.9 7.71243
      vertex -15.7 -0.0999994 7.71243
    endloop
  endfacet
  facet normal 0.608816 0 -0.793311
    outer loop
      vertex -15.7 2.9 7.71243
      vertex -15.9899 -0.0999994 7.48995
      vertex -15.9899 2.9 7.48995
    endloop
  endfacet
  facet normal 0.991446 -0 0.130515
    outer loop
      vertex -16.4 -0.0999994 6.5
      vertex -16.3523 2.9 6.13765
      vertex -16.4 2.9 6.5
    endloop
  endfacet
  facet normal 0.991446 0 0.130515
    outer loop
      vertex -16.3523 2.9 6.13765
      vertex -16.4 -0.0999994 6.5
      vertex -16.3523 -0.0999994 6.13765
    endloop
  endfacet
  facet normal -0.991446 0 -0.130515
    outer loop
      vertex -13.6 0 6.5
      vertex -13.6477 5.8 6.86235
      vertex -13.6 5.8 6.5
    endloop
  endfacet
  facet normal -0.991446 -0 -0.130515
    outer loop
      vertex -13.6477 5.8 6.86235
      vertex -13.6 0 6.5
      vertex -13.6477 0 6.86235
    endloop
  endfacet
  facet normal 0.991446 0 -0.130515
    outer loop
      vertex -16.3523 -0.0999994 6.86235
      vertex -16.4 2.9 6.5
      vertex -16.3523 2.9 6.86235
    endloop
  endfacet
  facet normal 0.991446 0 -0.130515
    outer loop
      vertex -16.4 2.9 6.5
      vertex -16.3523 -0.0999994 6.86235
      vertex -16.4 -0.0999994 6.5
    endloop
  endfacet
  facet normal -0.991446 0 0.130515
    outer loop
      vertex -13.6477 0 6.13765
      vertex -13.6 5.8 6.5
      vertex -13.6477 5.8 6.13765
    endloop
  endfacet
  facet normal -0.991446 0 0.130515
    outer loop
      vertex -13.6 5.8 6.5
      vertex -13.6477 0 6.13765
      vertex -13.6 0 6.5
    endloop
  endfacet
  facet normal -0.608816 0 -0.793311
    outer loop
      vertex -14.3 -0.0999994 7.71243
      vertex -14.0101 2.9 7.48995
      vertex -14.0101 -0.0999994 7.48995
    endloop
  endfacet
  facet normal -0.608816 0 -0.793311
    outer loop
      vertex -14.0101 2.9 7.48995
      vertex -14.3 -0.0999994 7.71243
      vertex -14.3 2.9 7.71243
    endloop
  endfacet
  facet normal -0.608816 0 0.793311
    outer loop
      vertex -14.3 2.9 5.28757
      vertex -14.0101 -0.0999994 5.51005
      vertex -14.0101 2.9 5.51005
    endloop
  endfacet
  facet normal -0.608816 0 0.793311
    outer loop
      vertex -14.0101 -0.0999994 5.51005
      vertex -14.3 2.9 5.28757
      vertex -14.3 -0.0999994 5.28757
    endloop
  endfacet
  facet normal 0.130532 0 0.991444
    outer loop
      vertex -15.3623 2.9 5.1477
      vertex -15 -0.0999994 5.1
      vertex -15 2.9 5.1
    endloop
  endfacet
  facet normal 0.130532 0 0.991444
    outer loop
      vertex -15 -0.0999994 5.1
      vertex -15.3623 2.9 5.1477
      vertex -15.3623 -0.0999994 5.1477
    endloop
  endfacet
  facet normal 0 -1 0
    outer loop
      vertex -14 5.8 7.47685
      vertex -13.6477 5.8 6.86235
      vertex -13.7876 5.8 7.2
    endloop
  endfacet
  facet normal 0 -1 0
    outer loop
      vertex -14 5.8 7.47685
      vertex -13.6 5.8 6.5
      vertex -13.6477 5.8 6.86235
    endloop
  endfacet
  facet normal 0 -1 0
    outer loop
      vertex -14 5.8 7.47685
      vertex -13.6477 5.8 6.13765
      vertex -13.6 5.8 6.5
    endloop
  endfacet
  facet normal 0 -1 0
    outer loop
      vertex -14 5.8 7.47685
      vertex -13.7876 5.8 5.8
      vertex -13.6477 5.8 6.13765
    endloop
  endfacet
  facet normal -0 -1 0
    outer loop
      vertex -13.7876 5.8 5.8
      vertex -14 5.8 7.47685
      vertex -14 5.8 5.52315
    endloop
  endfacet
  facet normal -0.793401 0 -0.608699
    outer loop
      vertex -13.7876 5.8 7.2
      vertex -14 2.9 7.47685
      vertex -14 5.8 7.47685
    endloop
  endfacet
  facet normal -0.793401 0 -0.608699
    outer loop
      vertex -13.7876 0 7.2
      vertex -14 2.9 7.47685
      vertex -13.7876 5.8 7.2
    endloop
  endfacet
  facet normal -0.793401 0 -0.608699
    outer loop
      vertex -14 0 7.47685
      vertex -14 2.9 7.47685
      vertex -13.7876 0 7.2
    endloop
  endfacet
  facet normal -0.791949 -0 -0.610587
    outer loop
      vertex -14 2.9 7.47685
      vertex -14 0 7.47685
      vertex -14.0101 2.9 7.48995
    endloop
  endfacet
  facet normal -0.791949 0 -0.610587
    outer loop
      vertex -14.0101 -0.0999994 7.48995
      vertex -14 0 7.47685
      vertex -14 -0.0999994 7.47685
    endloop
  endfacet
  facet normal -0.791949 0 -0.610587
    outer loop
      vertex -14 0 7.47685
      vertex -14.0101 -0.0999994 7.48995
      vertex -14.0101 2.9 7.48995
    endloop
  endfacet
  facet normal -0.791949 0 0.610587
    outer loop
      vertex -14.0101 2.9 5.51005
      vertex -14 0 5.52315
      vertex -14 2.9 5.52315
    endloop
  endfacet
  facet normal -0.791949 0 0.610587
    outer loop
      vertex -14.0101 -0.0999994 5.51005
      vertex -14 0 5.52315
      vertex -14.0101 2.9 5.51005
    endloop
  endfacet
  facet normal -0.791949 0 0.610587
    outer loop
      vertex -14 0 5.52315
      vertex -14.0101 -0.0999994 5.51005
      vertex -14 -0.0999994 5.52315
    endloop
  endfacet
  facet normal -0.793401 0 0.608699
    outer loop
      vertex -14 2.9 5.52315
      vertex -13.7876 5.8 5.8
      vertex -14 5.8 5.52315
    endloop
  endfacet
  facet normal -0.793401 0 0.608699
    outer loop
      vertex -13.7876 0 5.8
      vertex -14 2.9 5.52315
      vertex -14 0 5.52315
    endloop
  endfacet
  facet normal -0.793401 0 0.608699
    outer loop
      vertex -14 2.9 5.52315
      vertex -13.7876 0 5.8
      vertex -13.7876 5.8 5.8
    endloop
  endfacet
  facet normal 0.38266 0 -0.923889
    outer loop
      vertex -15.7 -0.0999994 7.71243
      vertex -15.3623 2.9 7.8523
      vertex -15.3623 -0.0999994 7.8523
    endloop
  endfacet
  facet normal 0.38266 0 -0.923889
    outer loop
      vertex -15.3623 2.9 7.8523
      vertex -15.7 -0.0999994 7.71243
      vertex -15.7 2.9 7.71243
    endloop
  endfacet
  facet normal -0.130532 0 -0.991444
    outer loop
      vertex -15 -0.0999994 7.9
      vertex -14.6377 2.9 7.8523
      vertex -14.6377 -0.0999994 7.8523
    endloop
  endfacet
  facet normal -0.130532 0 -0.991444
    outer loop
      vertex -14.6377 2.9 7.8523
      vertex -15 -0.0999994 7.9
      vertex -15 2.9 7.9
    endloop
  endfacet
  facet normal -0.38266 0 0.923889
    outer loop
      vertex -14.6377 2.9 5.1477
      vertex -14.3 -0.0999994 5.28757
      vertex -14.3 2.9 5.28757
    endloop
  endfacet
  facet normal -0.38266 0 0.923889
    outer loop
      vertex -14.3 -0.0999994 5.28757
      vertex -14.6377 2.9 5.1477
      vertex -14.6377 -0.0999994 5.1477
    endloop
  endfacet
  facet normal 0.608816 0 0.793311
    outer loop
      vertex -15.9899 2.9 5.51005
      vertex -15.7 -0.0999994 5.28757
      vertex -15.7 2.9 5.28757
    endloop
  endfacet
  facet normal 0.608816 0 0.793311
    outer loop
      vertex -15.7 -0.0999994 5.28757
      vertex -15.9899 2.9 5.51005
      vertex -15.9899 -0.0999994 5.51005
    endloop
  endfacet
  facet normal 0.38266 0 0.923889
    outer loop
      vertex -15.7 2.9 5.28757
      vertex -15.3623 -0.0999994 5.1477
      vertex -15.3623 2.9 5.1477
    endloop
  endfacet
  facet normal 0.38266 0 0.923889
    outer loop
      vertex -15.3623 -0.0999994 5.1477
      vertex -15.7 2.9 5.28757
      vertex -15.7 -0.0999994 5.28757
    endloop
  endfacet
  facet normal 0.130532 0 -0.991444
    outer loop
      vertex -15.3623 -0.0999994 7.8523
      vertex -15 2.9 7.9
      vertex -15 -0.0999994 7.9
    endloop
  endfacet
  facet normal 0.130532 0 -0.991444
    outer loop
      vertex -15 2.9 7.9
      vertex -15.3623 -0.0999994 7.8523
      vertex -15.3623 2.9 7.8523
    endloop
  endfacet
  facet normal 0.92384 -0 0.382779
    outer loop
      vertex -16.3523 -0.0999994 6.13765
      vertex -16.2124 2.9 5.8
      vertex -16.3523 2.9 6.13765
    endloop
  endfacet
  facet normal 0.92384 0 0.382779
    outer loop
      vertex -16.2124 2.9 5.8
      vertex -16.3523 -0.0999994 6.13765
      vertex -16.2124 -0.0999994 5.8
    endloop
  endfacet
  facet normal -0.92384 0 -0.382779
    outer loop
      vertex -13.6477 0 6.86235
      vertex -13.7876 5.8 7.2
      vertex -13.6477 5.8 6.86235
    endloop
  endfacet
  facet normal -0.92384 -0 -0.382779
    outer loop
      vertex -13.7876 5.8 7.2
      vertex -13.6477 0 6.86235
      vertex -13.7876 0 7.2
    endloop
  endfacet
  facet normal 0.92384 0 -0.382779
    outer loop
      vertex -16.2124 -0.0999994 7.2
      vertex -16.3523 2.9 6.86235
      vertex -16.2124 2.9 7.2
    endloop
  endfacet
  facet normal 0.92384 0 -0.382779
    outer loop
      vertex -16.3523 2.9 6.86235
      vertex -16.2124 -0.0999994 7.2
      vertex -16.3523 -0.0999994 6.86235
    endloop
  endfacet
  facet normal 0.793335 0 -0.608785
    outer loop
      vertex -15.9899 -0.0999994 7.48995
      vertex -16.2124 2.9 7.2
      vertex -15.9899 2.9 7.48995
    endloop
  endfacet
  facet normal 0.793335 0 -0.608785
    outer loop
      vertex -16.2124 2.9 7.2
      vertex -15.9899 -0.0999994 7.48995
      vertex -16.2124 -0.0999994 7.2
    endloop
  endfacet
  facet normal -0.38266 0 -0.923889
    outer loop
      vertex -14.6377 -0.0999994 7.8523
      vertex -14.3 2.9 7.71243
      vertex -14.3 -0.0999994 7.71243
    endloop
  endfacet
  facet normal -0.38266 0 -0.923889
    outer loop
      vertex -14.3 2.9 7.71243
      vertex -14.6377 -0.0999994 7.8523
      vertex -14.6377 2.9 7.8523
    endloop
  endfacet
  facet normal 0.793335 -0 0.608785
    outer loop
      vertex -16.2124 -0.0999994 5.8
      vertex -15.9899 2.9 5.51005
      vertex -16.2124 2.9 5.8
    endloop
  endfacet
  facet normal 0.793335 0 0.608785
    outer loop
      vertex -15.9899 2.9 5.51005
      vertex -16.2124 -0.0999994 5.8
      vertex -15.9899 -0.0999994 5.51005
    endloop
  endfacet
  facet normal -0.130532 0 0.991444
    outer loop
      vertex -15 2.9 5.1
      vertex -14.6377 -0.0999994 5.1477
      vertex -14.6377 2.9 5.1477
    endloop
  endfacet
  facet normal -0.130532 0 0.991444
    outer loop
      vertex -14.6377 -0.0999994 5.1477
      vertex -15 2.9 5.1
      vertex -15 -0.0999994 5.1
    endloop
  endfacet
  facet normal -0.92384 0 0.382779
    outer loop
      vertex 16.2124 -0.0999994 5.8
      vertex 16.3523 2.9 6.13765
      vertex 16.2124 2.9 5.8
    endloop
  endfacet
  facet normal -0.92384 0 0.382779
    outer loop
      vertex 16.3523 2.9 6.13765
      vertex 16.2124 -0.0999994 5.8
      vertex 16.3523 -0.0999994 6.13765
    endloop
  endfacet
  facet normal 0.608684 0 -0.793413
    outer loop
      vertex 14.01 -0.0999994 7.48995
      vertex 14.3 2.9 7.71243
      vertex 14.3 -0.0999994 7.71243
    endloop
  endfacet
  facet normal 0.608684 0 -0.793413
    outer loop
      vertex 14.3 2.9 7.71243
      vertex 14.01 -0.0999994 7.48995
      vertex 14.01 2.9 7.48995
    endloop
  endfacet
  facet normal 0.793401 0 0.608699
    outer loop
      vertex 13.7876 5.8 5.8
      vertex 14 2.9 5.52315
      vertex 14 5.8 5.52315
    endloop
  endfacet
  facet normal 0.793401 -0 0.608699
    outer loop
      vertex 13.7876 0 5.8
      vertex 14 2.9 5.52315
      vertex 13.7876 5.8 5.8
    endloop
  endfacet
  facet normal 0.793401 -0 0.608699
    outer loop
      vertex 14 0 5.52315
      vertex 14 2.9 5.52315
      vertex 13.7876 0 5.8
    endloop
  endfacet
  facet normal 0.794874 0 0.606774
    outer loop
      vertex 14 2.9 5.52315
      vertex 14 0 5.52315
      vertex 14.01 2.9 5.51005
    endloop
  endfacet
  facet normal 0.794874 0 0.606774
    outer loop
      vertex 14.01 -0.0999994 5.51005
      vertex 14 0 5.52315
      vertex 14 -0.0999994 5.52315
    endloop
  endfacet
  facet normal 0.794874 0 0.606774
    outer loop
      vertex 14 0 5.52315
      vertex 14.01 -0.0999994 5.51005
      vertex 14.01 2.9 5.51005
    endloop
  endfacet
  facet normal 0.991446 -0 0.130515
    outer loop
      vertex 13.6 0 6.5
      vertex 13.6477 5.8 6.13765
      vertex 13.6 5.8 6.5
    endloop
  endfacet
  facet normal 0.991446 0 0.130515
    outer loop
      vertex 13.6477 5.8 6.13765
      vertex 13.6 0 6.5
      vertex 13.6477 0 6.13765
    endloop
  endfacet
  facet normal -0.991446 0 -0.130515
    outer loop
      vertex 16.4 -0.0999994 6.5
      vertex 16.3523 2.9 6.86235
      vertex 16.4 2.9 6.5
    endloop
  endfacet
  facet normal -0.991446 -0 -0.130515
    outer loop
      vertex 16.3523 2.9 6.86235
      vertex 16.4 -0.0999994 6.5
      vertex 16.3523 -0.0999994 6.86235
    endloop
  endfacet
  facet normal 0.991446 0 -0.130515
    outer loop
      vertex 13.6477 0 6.86235
      vertex 13.6 5.8 6.5
      vertex 13.6477 5.8 6.86235
    endloop
  endfacet
  facet normal 0.991446 0 -0.130515
    outer loop
      vertex 13.6 5.8 6.5
      vertex 13.6477 0 6.86235
      vertex 13.6 0 6.5
    endloop
  endfacet
  facet normal -0.991446 0 0.130515
    outer loop
      vertex 16.3523 -0.0999994 6.13765
      vertex 16.4 2.9 6.5
      vertex 16.3523 2.9 6.13765
    endloop
  endfacet
  facet normal -0.991446 0 0.130515
    outer loop
      vertex 16.4 2.9 6.5
      vertex 16.3523 -0.0999994 6.13765
      vertex 16.4 -0.0999994 6.5
    endloop
  endfacet
  facet normal -0.608816 0 -0.793311
    outer loop
      vertex 15.7 -0.0999994 7.71243
      vertex 15.9899 2.9 7.48995
      vertex 15.9899 -0.0999994 7.48995
    endloop
  endfacet
  facet normal -0.608816 0 -0.793311
    outer loop
      vertex 15.9899 2.9 7.48995
      vertex 15.7 -0.0999994 7.71243
      vertex 15.7 2.9 7.71243
    endloop
  endfacet
  facet normal -0.608816 0 0.793311
    outer loop
      vertex 15.7 2.9 5.28757
      vertex 15.9899 -0.0999994 5.51005
      vertex 15.9899 2.9 5.51005
    endloop
  endfacet
  facet normal -0.608816 0 0.793311
    outer loop
      vertex 15.9899 -0.0999994 5.51005
      vertex 15.7 2.9 5.28757
      vertex 15.7 -0.0999994 5.28757
    endloop
  endfacet
  facet normal 0.130532 0 0.991444
    outer loop
      vertex 14.6377 2.9 5.1477
      vertex 15 -0.0999994 5.1
      vertex 15 2.9 5.1
    endloop
  endfacet
  facet normal 0.130532 0 0.991444
    outer loop
      vertex 15 -0.0999994 5.1
      vertex 14.6377 2.9 5.1477
      vertex 14.6377 -0.0999994 5.1477
    endloop
  endfacet
  facet normal 0 -1 0
    outer loop
      vertex 13.6477 5.8 6.86235
      vertex 14 5.8 7.47685
      vertex 13.7876 5.8 7.2
    endloop
  endfacet
  facet normal 0 -1 0
    outer loop
      vertex 13.6 5.8 6.5
      vertex 14 5.8 7.47685
      vertex 13.6477 5.8 6.86235
    endloop
  endfacet
  facet normal 0 -1 0
    outer loop
      vertex 13.6477 5.8 6.13765
      vertex 14 5.8 7.47685
      vertex 13.6 5.8 6.5
    endloop
  endfacet
  facet normal 0 -1 0
    outer loop
      vertex 13.7876 5.8 5.8
      vertex 14 5.8 7.47685
      vertex 13.6477 5.8 6.13765
    endloop
  endfacet
  facet normal 0 -1 -0
    outer loop
      vertex 14 5.8 7.47685
      vertex 13.7876 5.8 5.8
      vertex 14 5.8 5.52315
    endloop
  endfacet
  facet normal -0.793335 0 -0.608785
    outer loop
      vertex 16.2124 -0.0999994 7.2
      vertex 15.9899 2.9 7.48995
      vertex 16.2124 2.9 7.2
    endloop
  endfacet
  facet normal -0.793335 -0 -0.608785
    outer loop
      vertex 15.9899 2.9 7.48995
      vertex 16.2124 -0.0999994 7.2
      vertex 15.9899 -0.0999994 7.48995
    endloop
  endfacet
  facet normal -0.793335 0 0.608785
    outer loop
      vertex 15.9899 -0.0999994 5.51005
      vertex 16.2124 2.9 5.8
      vertex 15.9899 2.9 5.51005
    endloop
  endfacet
  facet normal -0.793335 0 0.608785
    outer loop
      vertex 16.2124 2.9 5.8
      vertex 15.9899 -0.0999994 5.51005
      vertex 16.2124 -0.0999994 5.8
    endloop
  endfacet
  facet normal 0.38266 0 -0.923889
    outer loop
      vertex 14.3 -0.0999994 7.71243
      vertex 14.6377 2.9 7.8523
      vertex 14.6377 -0.0999994 7.8523
    endloop
  endfacet
  facet normal 0.38266 0 -0.923889
    outer loop
      vertex 14.6377 2.9 7.8523
      vertex 14.3 -0.0999994 7.71243
      vertex 14.3 2.9 7.71243
    endloop
  endfacet
  facet normal -0.130532 0 -0.991444
    outer loop
      vertex 15 -0.0999994 7.9
      vertex 15.3623 2.9 7.8523
      vertex 15.3623 -0.0999994 7.8523
    endloop
  endfacet
  facet normal -0.130532 0 -0.991444
    outer loop
      vertex 15.3623 2.9 7.8523
      vertex 15 -0.0999994 7.9
      vertex 15 2.9 7.9
    endloop
  endfacet
  facet normal -0.38266 0 0.923889
    outer loop
      vertex 15.3623 2.9 5.1477
      vertex 15.7 -0.0999994 5.28757
      vertex 15.7 2.9 5.28757
    endloop
  endfacet
  facet normal -0.38266 0 0.923889
    outer loop
      vertex 15.7 -0.0999994 5.28757
      vertex 15.3623 2.9 5.1477
      vertex 15.3623 -0.0999994 5.1477
    endloop
  endfacet
  facet normal 0.608684 0 0.793413
    outer loop
      vertex 14.01 2.9 5.51005
      vertex 14.3 -0.0999994 5.28757
      vertex 14.3 2.9 5.28757
    endloop
  endfacet
  facet normal 0.608684 0 0.793413
    outer loop
      vertex 14.3 -0.0999994 5.28757
      vertex 14.01 2.9 5.51005
      vertex 14.01 -0.0999994 5.51005
    endloop
  endfacet
  facet normal 0.38266 0 0.923889
    outer loop
      vertex 14.3 2.9 5.28757
      vertex 14.6377 -0.0999994 5.1477
      vertex 14.6377 2.9 5.1477
    endloop
  endfacet
  facet normal 0.38266 0 0.923889
    outer loop
      vertex 14.6377 -0.0999994 5.1477
      vertex 14.3 2.9 5.28757
      vertex 14.3 -0.0999994 5.28757
    endloop
  endfacet
  facet normal 0.130532 0 -0.991444
    outer loop
      vertex 14.6377 -0.0999994 7.8523
      vertex 15 2.9 7.9
      vertex 15 -0.0999994 7.9
    endloop
  endfacet
  facet normal 0.130532 0 -0.991444
    outer loop
      vertex 15 2.9 7.9
      vertex 14.6377 -0.0999994 7.8523
      vertex 14.6377 2.9 7.8523
    endloop
  endfacet
  facet normal 0.92384 -0 0.382779
    outer loop
      vertex 13.6477 0 6.13765
      vertex 13.7876 5.8 5.8
      vertex 13.6477 5.8 6.13765
    endloop
  endfacet
  facet normal 0.92384 0 0.382779
    outer loop
      vertex 13.7876 5.8 5.8
      vertex 13.6477 0 6.13765
      vertex 13.7876 0 5.8
    endloop
  endfacet
  facet normal -0.92384 0 -0.382779
    outer loop
      vertex 16.3523 -0.0999994 6.86235
      vertex 16.2124 2.9 7.2
      vertex 16.3523 2.9 6.86235
    endloop
  endfacet
  facet normal -0.92384 -0 -0.382779
    outer loop
      vertex 16.2124 2.9 7.2
      vertex 16.3523 -0.0999994 6.86235
      vertex 16.2124 -0.0999994 7.2
    endloop
  endfacet
  facet normal 0.92384 0 -0.382779
    outer loop
      vertex 13.7876 0 7.2
      vertex 13.6477 5.8 6.86235
      vertex 13.7876 5.8 7.2
    endloop
  endfacet
  facet normal 0.92384 0 -0.382779
    outer loop
      vertex 13.6477 5.8 6.86235
      vertex 13.7876 0 7.2
      vertex 13.6477 0 6.86235
    endloop
  endfacet
  facet normal 0.794874 0 -0.606774
    outer loop
      vertex 14.01 2.9 7.48995
      vertex 14 0 7.47685
      vertex 14 2.9 7.47685
    endloop
  endfacet
  facet normal 0.794874 0 -0.606774
    outer loop
      vertex 14.01 -0.0999994 7.48995
      vertex 14 0 7.47685
      vertex 14.01 2.9 7.48995
    endloop
  endfacet
  facet normal 0.794874 0 -0.606774
    outer loop
      vertex 14 0 7.47685
      vertex 14.01 -0.0999994 7.48995
      vertex 14 -0.0999994 7.47685
    endloop
  endfacet
  facet normal 0.793401 0 -0.608699
    outer loop
      vertex 14 2.9 7.47685
      vertex 13.7876 5.8 7.2
      vertex 14 5.8 7.47685
    endloop
  endfacet
  facet normal 0.793401 0 -0.608699
    outer loop
      vertex 13.7876 0 7.2
      vertex 14 2.9 7.47685
      vertex 14 0 7.47685
    endloop
  endfacet
  facet normal 0.793401 0 -0.608699
    outer loop
      vertex 14 2.9 7.47685
      vertex 13.7876 0 7.2
      vertex 13.7876 5.8 7.2
    endloop
  endfacet
  facet normal -0.38266 0 -0.923889
    outer loop
      vertex 15.3623 -0.0999994 7.8523
      vertex 15.7 2.9 7.71243
      vertex 15.7 -0.0999994 7.71243
    endloop
  endfacet
  facet normal -0.38266 0 -0.923889
    outer loop
      vertex 15.7 2.9 7.71243
      vertex 15.3623 -0.0999994 7.8523
      vertex 15.3623 2.9 7.8523
    endloop
  endfacet
  facet normal -0.130532 0 0.991444
    outer loop
      vertex 15 2.9 5.1
      vertex 15.3623 -0.0999994 5.1477
      vertex 15.3623 2.9 5.1477
    endloop
  endfacet
  facet normal -0.130532 0 0.991444
    outer loop
      vertex 15.3623 -0.0999994 5.1477
      vertex 15 2.9 5.1
      vertex 15 -0.0999994 5.1
    endloop
  endfacet
  facet normal -0 0 1
    outer loop
      vertex -20 2.9 12.9
      vertex -14 0 12.9
      vertex -14 2.9 12.9
    endloop
  endfacet
  facet normal 0 0 1
    outer loop
      vertex -20 -0.0999994 12.9
      vertex -14 0 12.9
      vertex -20 2.9 12.9
    endloop
  endfacet
  facet normal 0 0 1
    outer loop
      vertex -14 0 12.9
      vertex -20 -0.0999994 12.9
      vertex -14 -0.0999994 12.9
    endloop
  endfacet
  facet normal 0 0 -1
    outer loop
      vertex -20 -0.0999994 -0.0999994
      vertex -14 2.9 -0.0999994
      vertex -14 -0.0999994 -0.0999994
    endloop
  endfacet
  facet normal -0 0 -1
    outer loop
      vertex -14 2.9 -0.0999994
      vertex -20 -0.0999994 -0.0999994
      vertex -20 2.9 -0.0999994
    endloop
  endfacet
  facet normal -1 0 0
    outer loop
      vertex -20 -0.0999994 -0.0999994
      vertex -20 2.9 12.9
      vertex -20 2.9 -0.0999994
    endloop
  endfacet
  facet normal -1 -0 0
    outer loop
      vertex -20 2.9 12.9
      vertex -20 -0.0999994 -0.0999994
      vertex -20 -0.0999994 12.9
    endloop
  endfacet
  facet normal 0 1 0
    outer loop
      vertex -14.6377 2.9 5.1477
      vertex -14 2.9 0
      vertex -15 2.9 5.1
    endloop
  endfacet
  facet normal 0 1 0
    outer loop
      vertex -14.3 2.9 5.28757
      vertex -14 2.9 0
      vertex -14.6377 2.9 5.1477
    endloop
  endfacet
  facet normal 0 1 0
    outer loop
      vertex -14.0101 2.9 5.51005
      vertex -14 2.9 0
      vertex -14.3 2.9 5.28757
    endloop
  endfacet
  facet normal 0 1 -0
    outer loop
      vertex -14 2.9 0
      vertex -14.0101 2.9 5.51005
      vertex -14 2.9 5.52315
    endloop
  endfacet
  facet normal 0 1 0
    outer loop
      vertex -15.3623 2.9 7.8523
      vertex -14 2.9 12.9
      vertex -15 2.9 7.9
    endloop
  endfacet
  facet normal 0 1 0
    outer loop
      vertex -14 2.9 12.9
      vertex -14.6377 2.9 7.8523
      vertex -15 2.9 7.9
    endloop
  endfacet
  facet normal 0 1 0
    outer loop
      vertex -14 2.9 12.9
      vertex -14.3 2.9 7.71243
      vertex -14.6377 2.9 7.8523
    endloop
  endfacet
  facet normal 0 1 0
    outer loop
      vertex -14 2.9 12.9
      vertex -14.0101 2.9 7.48995
      vertex -14.3 2.9 7.71243
    endloop
  endfacet
  facet normal -0 1 0
    outer loop
      vertex -14.0101 2.9 7.48995
      vertex -14 2.9 12.9
      vertex -14 2.9 7.47685
    endloop
  endfacet
  facet normal 0 1 0
    outer loop
      vertex -15.7 2.9 7.71243
      vertex -14 2.9 12.9
      vertex -15.3623 2.9 7.8523
    endloop
  endfacet
  facet normal 0 1 0
    outer loop
      vertex -14 2.9 12.9
      vertex -15.7 2.9 7.71243
      vertex -20 2.9 12.9
    endloop
  endfacet
  facet normal 0 1 -0
    outer loop
      vertex -15.9899 2.9 7.48995
      vertex -20 2.9 12.9
      vertex -15.7 2.9 7.71243
    endloop
  endfacet
  facet normal 0 1 -0
    outer loop
      vertex -16.2124 2.9 7.2
      vertex -20 2.9 12.9
      vertex -15.9899 2.9 7.48995
    endloop
  endfacet
  facet normal 0 1 -0
    outer loop
      vertex -16.3523 2.9 6.86235
      vertex -20 2.9 12.9
      vertex -16.2124 2.9 7.2
    endloop
  endfacet
  facet normal 0 1 -0
    outer loop
      vertex -16.4 2.9 6.5
      vertex -20 2.9 12.9
      vertex -16.3523 2.9 6.86235
    endloop
  endfacet
  facet normal 0 1 0
    outer loop
      vertex -20 2.9 -0.0999994
      vertex -16.4 2.9 6.5
      vertex -16.3523 2.9 6.13765
    endloop
  endfacet
  facet normal 0 1 0
    outer loop
      vertex -20 2.9 -0.0999994
      vertex -16.3523 2.9 6.13765
      vertex -16.2124 2.9 5.8
    endloop
  endfacet
  facet normal 0 1 0
    outer loop
      vertex -14 2.9 0
      vertex -15.3623 2.9 5.1477
      vertex -15 2.9 5.1
    endloop
  endfacet
  facet normal 0 1 0
    outer loop
      vertex -14 2.9 0
      vertex -15.7 2.9 5.28757
      vertex -15.3623 2.9 5.1477
    endloop
  endfacet
  facet normal 0 1 0
    outer loop
      vertex -20 2.9 -0.0999994
      vertex -15.7 2.9 5.28757
      vertex -14 2.9 0
    endloop
  endfacet
  facet normal 0 1 0
    outer loop
      vertex -15.7 2.9 5.28757
      vertex -20 2.9 -0.0999994
      vertex -15.9899 2.9 5.51005
    endloop
  endfacet
  facet normal 0 1 0
    outer loop
      vertex -15.9899 2.9 5.51005
      vertex -20 2.9 -0.0999994
      vertex -16.2124 2.9 5.8
    endloop
  endfacet
  facet normal 0 1 0
    outer loop
      vertex -20 2.9 -0.0999994
      vertex -14 2.9 0
      vertex -14 2.9 -0.0999994
    endloop
  endfacet
  facet normal 0 1 0
    outer loop
      vertex -16.4 2.9 6.5
      vertex -20 2.9 -0.0999994
      vertex -20 2.9 12.9
    endloop
  endfacet
  facet normal 0 -1 0
    outer loop
      vertex -15.7 -0.0999994 7.71243
      vertex -14 -0.0999994 12.9
      vertex -20 -0.0999994 12.9
    endloop
  endfacet
  facet normal 0 -1 0
    outer loop
      vertex -14 -0.0999994 12.9
      vertex -15.3623 -0.0999994 7.8523
      vertex -15 -0.0999994 7.9
    endloop
  endfacet
  facet normal 0 -1 0
    outer loop
      vertex -14 -0.0999994 12.9
      vertex -15.7 -0.0999994 7.71243
      vertex -15.3623 -0.0999994 7.8523
    endloop
  endfacet
  facet normal 0 -1 0
    outer loop
      vertex -20 -0.0999994 12.9
      vertex -15.9899 -0.0999994 7.48995
      vertex -15.7 -0.0999994 7.71243
    endloop
  endfacet
  facet normal 0 -1 0
    outer loop
      vertex -20 -0.0999994 12.9
      vertex -16.2124 -0.0999994 7.2
      vertex -15.9899 -0.0999994 7.48995
    endloop
  endfacet
  facet normal 0 -1 0
    outer loop
      vertex -20 -0.0999994 12.9
      vertex -16.3523 -0.0999994 6.86235
      vertex -16.2124 -0.0999994 7.2
    endloop
  endfacet
  facet normal 0 -1 0
    outer loop
      vertex -20 -0.0999994 12.9
      vertex -16.4 -0.0999994 6.5
      vertex -16.3523 -0.0999994 6.86235
    endloop
  endfacet
  facet normal 0 -1 0
    outer loop
      vertex -20 -0.0999994 -0.0999994
      vertex -16.4 -0.0999994 6.5
      vertex -20 -0.0999994 12.9
    endloop
  endfacet
  facet normal 0 -1 -0
    outer loop
      vertex -16.4 -0.0999994 6.5
      vertex -20 -0.0999994 -0.0999994
      vertex -16.3523 -0.0999994 6.13765
    endloop
  endfacet
  facet normal 0 -1 0
    outer loop
      vertex -15.7 -0.0999994 5.28757
      vertex -14 -0.0999994 -0.0999994
      vertex -15.3623 -0.0999994 5.1477
    endloop
  endfacet
  facet normal 0 -1 0
    outer loop
      vertex -14 -0.0999994 -0.0999994
      vertex -15.7 -0.0999994 5.28757
      vertex -20 -0.0999994 -0.0999994
    endloop
  endfacet
  facet normal 0 -1 -0
    outer loop
      vertex -15.9899 -0.0999994 5.51005
      vertex -20 -0.0999994 -0.0999994
      vertex -15.7 -0.0999994 5.28757
    endloop
  endfacet
  facet normal 0 -1 -0
    outer loop
      vertex -16.2124 -0.0999994 5.8
      vertex -20 -0.0999994 -0.0999994
      vertex -15.9899 -0.0999994 5.51005
    endloop
  endfacet
  facet normal 0 -1 -0
    outer loop
      vertex -16.3523 -0.0999994 6.13765
      vertex -20 -0.0999994 -0.0999994
      vertex -16.2124 -0.0999994 5.8
    endloop
  endfacet
  facet normal 0 -1 0
    outer loop
      vertex -14.6377 -0.0999994 7.8523
      vertex -14 -0.0999994 12.9
      vertex -15 -0.0999994 7.9
    endloop
  endfacet
  facet normal 0 -1 0
    outer loop
      vertex -14.3 -0.0999994 7.71243
      vertex -14 -0.0999994 12.9
      vertex -14.6377 -0.0999994 7.8523
    endloop
  endfacet
  facet normal 0 -1 0
    outer loop
      vertex -14.0101 -0.0999994 7.48995
      vertex -14 -0.0999994 12.9
      vertex -14.3 -0.0999994 7.71243
    endloop
  endfacet
  facet normal 0 -1 -0
    outer loop
      vertex -14 -0.0999994 12.9
      vertex -14.0101 -0.0999994 7.48995
      vertex -14 -0.0999994 7.47685
    endloop
  endfacet
  facet normal 0 -1 0
    outer loop
      vertex -15.3623 -0.0999994 5.1477
      vertex -14 -0.0999994 -0.0999994
      vertex -15 -0.0999994 5.1
    endloop
  endfacet
  facet normal 0 -1 0
    outer loop
      vertex -15 -0.0999994 5.1
      vertex -14 -0.0999994 -0.0999994
      vertex -14.6377 -0.0999994 5.1477
    endloop
  endfacet
  facet normal 0 -1 0
    outer loop
      vertex -14.6377 -0.0999994 5.1477
      vertex -14 -0.0999994 -0.0999994
      vertex -14.3 -0.0999994 5.28757
    endloop
  endfacet
  facet normal 0 -1 0
    outer loop
      vertex -14.0101 -0.0999994 5.51005
      vertex -14 -0.0999994 -0.0999994
      vertex -14 -0.0999994 5.52315
    endloop
  endfacet
  facet normal 0 -1 0
    outer loop
      vertex -14.3 -0.0999994 5.28757
      vertex -14 -0.0999994 -0.0999994
      vertex -14.0101 -0.0999994 5.51005
    endloop
  endfacet
  facet normal 1 -0 0
    outer loop
      vertex 20 -0.0999994 12.9
      vertex 20 2.9 -0.0999994
      vertex 20 2.9 12.9
    endloop
  endfacet
  facet normal 1 0 0
    outer loop
      vertex 20 2.9 -0.0999994
      vertex 20 -0.0999994 12.9
      vertex 20 -0.0999994 -0.0999994
    endloop
  endfacet
  facet normal 0 0 1
    outer loop
      vertex 14 0 12.9
      vertex 20 2.9 12.9
      vertex 14 2.9 12.9
    endloop
  endfacet
  facet normal 0 0 1
    outer loop
      vertex 20 2.9 12.9
      vertex 14 0 12.9
      vertex 20 -0.0999994 12.9
    endloop
  endfacet
  facet normal 0 0 1
    outer loop
      vertex 20 -0.0999994 12.9
      vertex 14 0 12.9
      vertex 14 -0.0999994 12.9
    endloop
  endfacet
  facet normal 0 0 -1
    outer loop
      vertex 14 -0.0999994 -0.0999994
      vertex 20 2.9 -0.0999994
      vertex 20 -0.0999994 -0.0999994
    endloop
  endfacet
  facet normal -0 0 -1
    outer loop
      vertex 20 2.9 -0.0999994
      vertex 14 -0.0999994 -0.0999994
      vertex 14 2.9 -0.0999994
    endloop
  endfacet
  facet normal 0 1 -0
    outer loop
      vertex 15.7 2.9 7.71243
      vertex 14 2.9 12.9
      vertex 20 2.9 12.9
    endloop
  endfacet
  facet normal 0 1 0
    outer loop
      vertex 14 2.9 12.9
      vertex 15.3623 2.9 7.8523
      vertex 15 2.9 7.9
    endloop
  endfacet
  facet normal 0 1 0
    outer loop
      vertex 14 2.9 12.9
      vertex 15.7 2.9 7.71243
      vertex 15.3623 2.9 7.8523
    endloop
  endfacet
  facet normal 0 1 0
    outer loop
      vertex 20 2.9 12.9
      vertex 15.9899 2.9 7.48995
      vertex 15.7 2.9 7.71243
    endloop
  endfacet
  facet normal 0 1 0
    outer loop
      vertex 20 2.9 12.9
      vertex 16.2124 2.9 7.2
      vertex 15.9899 2.9 7.48995
    endloop
  endfacet
  facet normal 0 1 0
    outer loop
      vertex 20 2.9 12.9
      vertex 16.3523 2.9 6.86235
      vertex 16.2124 2.9 7.2
    endloop
  endfacet
  facet normal 0 1 0
    outer loop
      vertex 20 2.9 12.9
      vertex 16.4 2.9 6.5
      vertex 16.3523 2.9 6.86235
    endloop
  endfacet
  facet normal 0 1 -0
    outer loop
      vertex 20 2.9 -0.0999994
      vertex 16.4 2.9 6.5
      vertex 20 2.9 12.9
    endloop
  endfacet
  facet normal 0 1 0
    outer loop
      vertex 16.4 2.9 6.5
      vertex 20 2.9 -0.0999994
      vertex 16.3523 2.9 6.13765
    endloop
  endfacet
  facet normal 0 1 0
    outer loop
      vertex 15.3623 2.9 5.1477
      vertex 14 2.9 0
      vertex 15 2.9 5.1
    endloop
  endfacet
  facet normal 0 1 0
    outer loop
      vertex 15.7 2.9 5.28757
      vertex 14 2.9 0
      vertex 15.3623 2.9 5.1477
    endloop
  endfacet
  facet normal 0 1 0
    outer loop
      vertex 20 2.9 -0.0999994
      vertex 15.7 2.9 5.28757
      vertex 15.9899 2.9 5.51005
    endloop
  endfacet
  facet normal 0 1 0
    outer loop
      vertex 20 2.9 -0.0999994
      vertex 15.9899 2.9 5.51005
      vertex 16.2124 2.9 5.8
    endloop
  endfacet
  facet normal 0 1 0
    outer loop
      vertex 16.3523 2.9 6.13765
      vertex 20 2.9 -0.0999994
      vertex 16.2124 2.9 5.8
    endloop
  endfacet
  facet normal 0 1 0
    outer loop
      vertex 15.7 2.9 5.28757
      vertex 20 2.9 -0.0999994
      vertex 14 2.9 0
    endloop
  endfacet
  facet normal 0 1 0
    outer loop
      vertex 14 2.9 0
      vertex 20 2.9 -0.0999994
      vertex 14 2.9 -0.0999994
    endloop
  endfacet
  facet normal 0 1 -0
    outer loop
      vertex 14.6377 2.9 7.8523
      vertex 14 2.9 12.9
      vertex 15 2.9 7.9
    endloop
  endfacet
  facet normal 0 1 -0
    outer loop
      vertex 14.3 2.9 7.71243
      vertex 14 2.9 12.9
      vertex 14.6377 2.9 7.8523
    endloop
  endfacet
  facet normal 0 1 -0
    outer loop
      vertex 14.01 2.9 7.48995
      vertex 14 2.9 12.9
      vertex 14.3 2.9 7.71243
    endloop
  endfacet
  facet normal 0 1 0
    outer loop
      vertex 14 2.9 12.9
      vertex 14.01 2.9 7.48995
      vertex 14 2.9 7.47685
    endloop
  endfacet
  facet normal 0 1 0
    outer loop
      vertex 14.01 2.9 5.51005
      vertex 14 2.9 0
      vertex 14 2.9 5.52315
    endloop
  endfacet
  facet normal 0 1 0
    outer loop
      vertex 14.3 2.9 5.28757
      vertex 14 2.9 0
      vertex 14.01 2.9 5.51005
    endloop
  endfacet
  facet normal 0 1 0
    outer loop
      vertex 14.6377 2.9 5.1477
      vertex 14 2.9 0
      vertex 14.3 2.9 5.28757
    endloop
  endfacet
  facet normal 0 1 0
    outer loop
      vertex 14 2.9 0
      vertex 14.6377 2.9 5.1477
      vertex 15 2.9 5.1
    endloop
  endfacet
  facet normal 0 -1 -0
    outer loop
      vertex 14.6377 -0.0999994 5.1477
      vertex 14 -0.0999994 -0.0999994
      vertex 15 -0.0999994 5.1
    endloop
  endfacet
  facet normal 0 -1 -0
    outer loop
      vertex 14.3 -0.0999994 5.28757
      vertex 14 -0.0999994 -0.0999994
      vertex 14.6377 -0.0999994 5.1477
    endloop
  endfacet
  facet normal 0 -1 -0
    outer loop
      vertex 14.01 -0.0999994 5.51005
      vertex 14 -0.0999994 -0.0999994
      vertex 14.3 -0.0999994 5.28757
    endloop
  endfacet
  facet normal 0 -1 0
    outer loop
      vertex 14 -0.0999994 -0.0999994
      vertex 14.01 -0.0999994 5.51005
      vertex 14 -0.0999994 5.52315
    endloop
  endfacet
  facet normal 0 -1 0
    outer loop
      vertex 15.3623 -0.0999994 7.8523
      vertex 14 -0.0999994 12.9
      vertex 15 -0.0999994 7.9
    endloop
  endfacet
  facet normal 0 -1 0
    outer loop
      vertex 14 -0.0999994 12.9
      vertex 14.6377 -0.0999994 7.8523
      vertex 15 -0.0999994 7.9
    endloop
  endfacet
  facet normal 0 -1 0
    outer loop
      vertex 14 -0.0999994 12.9
      vertex 14.3 -0.0999994 7.71243
      vertex 14.6377 -0.0999994 7.8523
    endloop
  endfacet
  facet normal 0 -1 0
    outer loop
      vertex 14 -0.0999994 12.9
      vertex 14.01 -0.0999994 7.48995
      vertex 14.3 -0.0999994 7.71243
    endloop
  endfacet
  facet normal -0 -1 0
    outer loop
      vertex 14.01 -0.0999994 7.48995
      vertex 14 -0.0999994 12.9
      vertex 14 -0.0999994 7.47685
    endloop
  endfacet
  facet normal 0 -1 0
    outer loop
      vertex 15.7 -0.0999994 7.71243
      vertex 14 -0.0999994 12.9
      vertex 15.3623 -0.0999994 7.8523
    endloop
  endfacet
  facet normal 0 -1 0
    outer loop
      vertex 14 -0.0999994 12.9
      vertex 15.7 -0.0999994 7.71243
      vertex 20 -0.0999994 12.9
    endloop
  endfacet
  facet normal 0 -1 0
    outer loop
      vertex 15.9899 -0.0999994 7.48995
      vertex 20 -0.0999994 12.9
      vertex 15.7 -0.0999994 7.71243
    endloop
  endfacet
  facet normal 0 -1 0
    outer loop
      vertex 16.2124 -0.0999994 7.2
      vertex 20 -0.0999994 12.9
      vertex 15.9899 -0.0999994 7.48995
    endloop
  endfacet
  facet normal 0 -1 0
    outer loop
      vertex 16.3523 -0.0999994 6.86235
      vertex 20 -0.0999994 12.9
      vertex 16.2124 -0.0999994 7.2
    endloop
  endfacet
  facet normal 0 -1 0
    outer loop
      vertex 16.4 -0.0999994 6.5
      vertex 20 -0.0999994 12.9
      vertex 16.3523 -0.0999994 6.86235
    endloop
  endfacet
  facet normal 0 -1 0
    outer loop
      vertex 20 -0.0999994 -0.0999994
      vertex 16.4 -0.0999994 6.5
      vertex 16.3523 -0.0999994 6.13765
    endloop
  endfacet
  facet normal 0 -1 0
    outer loop
      vertex 20 -0.0999994 -0.0999994
      vertex 16.3523 -0.0999994 6.13765
      vertex 16.2124 -0.0999994 5.8
    endloop
  endfacet
  facet normal 0 -1 0
    outer loop
      vertex 14 -0.0999994 -0.0999994
      vertex 15.3623 -0.0999994 5.1477
      vertex 15 -0.0999994 5.1
    endloop
  endfacet
  facet normal 0 -1 0
    outer loop
      vertex 14 -0.0999994 -0.0999994
      vertex 15.7 -0.0999994 5.28757
      vertex 15.3623 -0.0999994 5.1477
    endloop
  endfacet
  facet normal 0 -1 0
    outer loop
      vertex 20 -0.0999994 -0.0999994
      vertex 15.7 -0.0999994 5.28757
      vertex 14 -0.0999994 -0.0999994
    endloop
  endfacet
  facet normal 0 -1 0
    outer loop
      vertex 15.7 -0.0999994 5.28757
      vertex 20 -0.0999994 -0.0999994
      vertex 15.9899 -0.0999994 5.51005
    endloop
  endfacet
  facet normal 0 -1 0
    outer loop
      vertex 15.9899 -0.0999994 5.51005
      vertex 20 -0.0999994 -0.0999994
      vertex 16.2124 -0.0999994 5.8
    endloop
  endfacet
  facet normal 0 -1 0
    outer loop
      vertex 16.4 -0.0999994 6.5
      vertex 20 -0.0999994 -0.0999994
      vertex 20 -0.0999994 12.9
    endloop
  endfacet
endsolid OpenSCAD_Model
